<svg xmlns="http://www.w3.org/2000/svg" version="1.2" baseProfile="tiny" width="236" height="236" viewBox="41 41 118 118"><path d="M45,45 l110,0 0,110 -110,0 z" stroke-width="4" stroke="black" fill="rgb(255,161,255)" fill-opacity="1" ></path><path d="m 133,90 c 0,10 -15,10 -15,0 0,-10 15,-10 15,0 z m -8,7.3 0,25 m -10,-20 20,0 m -52,-12.3 c 0,10 -15,10 -15,0 0,-10 15,-10 15,0 z m -8,7.3 0,25 m -10,-20 20,0 m 23,-7.3 c 0,10 -15,10 -15,0 0,-10 15,-10 15,0 z m -8,7.3 0,25 m -10,-20 20,0" stroke-width="3" stroke="black" fill="none" ></path></svg>